<svg id="Layer_1" data-name="Layer 1" xmlns="http://www.w3.org/2000/svg" xmlns:xlink="http://www.w3.org/1999/xlink" viewBox="0 0 1503.03 500"><defs><style>.cls-1{fill:none;}.cls-2{fill:#e5e1da;}.cls-3{fill:#dd7d26;}.cls-4{opacity:0.1;}.cls-5{fill:#d8702a;}.cls-6{fill:#273827;}.cls-7{clip-path:url(#clip-path);}.cls-8{fill:#fff;opacity:0.3;}.cls-9{fill:#2f332f;}</style><clipPath id="clip-path"><path class="cls-1" d="M310.45,349.38c-9.7,15.4-22.17,23.89-35.1,23.89s-25.4-8.49-35.1-23.89a102.83,102.83,0,0,1-12-28.38,143.49,143.49,0,0,1,0-71.54,102.83,102.83,0,0,1,12-28.38c9.7-15.4,22.17-23.88,35.1-23.88s25.4,8.48,35.1,23.88a102.83,102.83,0,0,1,12,28.38,143.49,143.49,0,0,1,0,71.54A102.83,102.83,0,0,1,310.45,349.38Z"/></clipPath></defs><title>Lockup</title><ellipse class="cls-2" cx="267.45" cy="285.46" rx="78.35" ry="114.57"/><path class="cls-3" d="M310.45,349.38c-9.7,15.4-22.17,23.89-35.1,23.89s-25.4-8.49-35.1-23.89a102.83,102.83,0,0,1-12-28.38,143.49,143.49,0,0,1,0-71.54,102.83,102.83,0,0,1,12-28.38c9.7-15.4,22.17-23.88,35.1-23.88s25.4,8.48,35.1,23.88a102.83,102.83,0,0,1,12,28.38,143.49,143.49,0,0,1,0,71.54A102.83,102.83,0,0,1,310.45,349.38Z"/><path class="cls-4" d="M349,323.41c0,63.28-73.46,23.75-73.46-39.52C320.77,277.17,349,260.14,349,323.41Z"/><path class="cls-5" d="M351,330.4s21.79,6,21.79,40.57,22.09,2.27,22.09-30,6.8-18.12,6.8-44.18-7.93-15.3-7.93-28.89,11.9-24.36,11.9-48.72-15.3-45.32-24.36-45.32S360.17,243.66,351,234.44Z"/><path class="cls-4" d="M351,330.4s17.18-5.21,23.26,28.8c4.06,22.76,20.62,14,20.62-18.26s6.8-18.12,6.8-44.18-7.93-15.3-7.93-28.89,11.9-24.36,11.9-48.72-21.75-24.73-27.33-11.89c-3.6,8.31-8.13,67.28-17.34,58.06Z"/><path class="cls-6" d="M268.52,155.09h0s-64.5,1.09-85.94,2.67c-49.52,3.65-91.41,55.59-91.41,127.47s26,117.85,81.26,123.32c19,1.88,68.34,5.07,87.91,6.31a65.33,65.33,0,0,0,8.18.52h0c51,0,92.41-58.27,92.41-130.15S319.56,155.09,268.52,155.09Zm50.06,211.32c-13.84,19.49-31.61,30.23-50.06,30.23s-36.21-10.74-50-30.23a122.77,122.77,0,0,1-17.14-35.91,161.61,161.61,0,0,1,0-90.54,122.77,122.77,0,0,1,17.14-35.91c13.84-19.49,31.61-30.22,50-30.22s36.22,10.73,50.06,30.22A122.77,122.77,0,0,1,335.72,240a161.61,161.61,0,0,1,0,90.54A122.77,122.77,0,0,1,318.58,366.41Z"/><g class="cls-7"><path class="cls-8" d="M335.44,206.3a173.59,173.59,0,0,0-39.07,11.16,189.13,189.13,0,0,0-66,45A197.61,197.61,0,0,0,206,294.21a197.21,197.21,0,0,1-25.43,33,178.71,178.71,0,0,1-15.41,14.09c-2.66,2.24-5.48,4.28-8.26,6.37s-5.71,4-8.69,5.76a170.15,170.15,0,0,1-37.51,17.65c-13.12,4.2-26.71,7.21-40.42,7.49a170.66,170.66,0,0,0,39-11.24,187.58,187.58,0,0,0,35.39-19.21,189.92,189.92,0,0,0,54.37-58.22,198.06,198.06,0,0,1,25.75-32.8,177.71,177.71,0,0,1,32.6-25.93,175.2,175.2,0,0,1,18.29-9.88,182.92,182.92,0,0,1,19.3-7.57C308.14,209.56,321.73,206.59,335.44,206.3Z"/><path class="cls-8" d="M335.44,189.66a173.07,173.07,0,0,0-39.07,11.16,188.78,188.78,0,0,0-66,45A197.53,197.53,0,0,0,206,277.56a196.4,196.4,0,0,1-25.43,33,177.1,177.1,0,0,1-15.41,14.09c-2.66,2.25-5.48,4.29-8.26,6.38s-5.71,4-8.69,5.76a170.15,170.15,0,0,1-37.51,17.65c-13.12,4.2-26.71,7.21-40.42,7.49a170.18,170.18,0,0,0,39-11.25,187,187,0,0,0,35.39-19.2,189.84,189.84,0,0,0,54.37-58.23,198.48,198.48,0,0,1,25.75-32.8,178.09,178.09,0,0,1,32.6-25.92,173.35,173.35,0,0,1,18.29-9.88,185.18,185.18,0,0,1,19.3-7.58C308.14,192.92,321.73,190,335.44,189.66Z"/><path class="cls-8" d="M335.44,173a173.09,173.09,0,0,0-39.07,11.17,188.93,188.93,0,0,0-66,45A197.61,197.61,0,0,0,206,260.92a196.81,196.81,0,0,1-25.43,33A177.1,177.1,0,0,1,165.15,308c-2.66,2.24-5.48,4.28-8.26,6.37s-5.71,4-8.69,5.76a169.7,169.7,0,0,1-37.51,17.65C97.57,342,84,345,70.27,345.3a171.19,171.19,0,0,0,39-11.25,187,187,0,0,0,35.39-19.21,189.92,189.92,0,0,0,54.37-58.22,198.48,198.48,0,0,1,25.75-32.8,178.14,178.14,0,0,1,32.6-25.93A175.2,175.2,0,0,1,275.71,188a187.36,187.36,0,0,1,19.3-7.57C308.14,176.28,321.73,173.3,335.44,173Z"/><path class="cls-8" d="M359.6,206.3a173.51,173.51,0,0,0-39.06,11.16,189.13,189.13,0,0,0-66,45,197.1,197.1,0,0,0-24.37,31.75,197.16,197.16,0,0,1-25.42,33,180.2,180.2,0,0,1-15.41,14.09c-2.66,2.24-5.49,4.28-8.26,6.37s-5.72,4-8.69,5.76a170.58,170.58,0,0,1-37.51,17.65c-13.12,4.2-26.71,7.21-40.42,7.49a170.58,170.58,0,0,0,39-11.24,187.67,187.67,0,0,0,35.4-19.21,189.89,189.89,0,0,0,54.36-58.22A197.6,197.6,0,0,1,249,257.11a176.88,176.88,0,0,1,50.88-35.81,183.77,183.77,0,0,1,19.3-7.57C332.3,209.56,345.9,206.59,359.6,206.3Z"/><path class="cls-8" d="M383.77,206.3a173.59,173.59,0,0,0-39.07,11.16,189.13,189.13,0,0,0-66,45,197.61,197.61,0,0,0-24.36,31.75,197.21,197.21,0,0,1-25.43,33,178.71,178.71,0,0,1-15.41,14.09c-2.66,2.24-5.48,4.28-8.26,6.37s-5.72,4-8.69,5.76A170.15,170.15,0,0,1,159,371.09c-13.12,4.2-26.71,7.21-40.42,7.49a170.66,170.66,0,0,0,39-11.24A187.58,187.58,0,0,0,193,348.13a189.92,189.92,0,0,0,54.37-58.22,198.06,198.06,0,0,1,25.75-32.8,177.71,177.71,0,0,1,32.6-25.93A175.2,175.2,0,0,1,324,221.3a182.92,182.92,0,0,1,19.3-7.57C356.47,209.56,370.06,206.59,383.77,206.3Z"/><path class="cls-8" d="M407.93,206.3a173.51,173.51,0,0,0-39.06,11.16,190.83,190.83,0,0,0-35.51,19,188.85,188.85,0,0,0-30.51,26,197.1,197.1,0,0,0-24.37,31.75,197.16,197.16,0,0,1-25.42,33,180.2,180.2,0,0,1-15.41,14.09c-2.66,2.24-5.49,4.28-8.27,6.37s-5.71,4-8.69,5.76a170.29,170.29,0,0,1-37.5,17.65c-13.13,4.2-26.71,7.21-40.42,7.49a170.58,170.58,0,0,0,39-11.24,188,188,0,0,0,35.4-19.21,189.89,189.89,0,0,0,54.36-58.22,197.6,197.6,0,0,1,25.76-32.8A176.88,176.88,0,0,1,348.2,221.3a183.77,183.77,0,0,1,19.3-7.57C380.63,209.56,394.23,206.59,407.93,206.3Z"/><path class="cls-8" d="M456.26,206.3a173.51,173.51,0,0,0-39.06,11.16,190.83,190.83,0,0,0-35.51,19,188.85,188.85,0,0,0-30.51,26,197.1,197.1,0,0,0-24.37,31.75,197.16,197.16,0,0,1-25.42,33A180.2,180.2,0,0,1,286,341.31c-2.66,2.24-5.49,4.28-8.27,6.37s-5.71,4-8.69,5.76a170.29,170.29,0,0,1-37.5,17.65c-13.13,4.2-26.71,7.21-40.42,7.49a170.58,170.58,0,0,0,39-11.24,188,188,0,0,0,35.4-19.21,189.89,189.89,0,0,0,54.36-58.22,197.6,197.6,0,0,1,25.76-32.8,176.88,176.88,0,0,1,50.88-35.81,182.92,182.92,0,0,1,19.3-7.57C429,209.56,442.55,206.59,456.26,206.3Z"/><path class="cls-8" d="M456.26,226.13a173.51,173.51,0,0,0-39.06,11.16,189.13,189.13,0,0,0-66,45A197.1,197.1,0,0,0,326.81,314a197.16,197.16,0,0,1-25.42,33A178.45,178.45,0,0,1,286,361.13c-2.66,2.25-5.49,4.29-8.27,6.38s-5.71,4-8.69,5.76a170.29,170.29,0,0,1-37.5,17.65c-13.13,4.2-26.71,7.21-40.42,7.49a170.58,170.58,0,0,0,39-11.24A188,188,0,0,0,265.53,368a189.89,189.89,0,0,0,54.36-58.22,197.6,197.6,0,0,1,25.76-32.8,176.88,176.88,0,0,1,50.88-35.81,182.92,182.92,0,0,1,19.3-7.57C429,229.39,442.55,226.42,456.26,226.13Z"/><path class="cls-8" d="M456.26,246a173,173,0,0,0-39.06,11.16,189.13,189.13,0,0,0-66,45,197.1,197.1,0,0,0-24.37,31.75,196.68,196.68,0,0,1-25.42,33A177,177,0,0,1,286,381c-2.66,2.25-5.49,4.29-8.27,6.38s-5.71,4-8.69,5.76a170.29,170.29,0,0,1-37.5,17.65c-13.13,4.2-26.71,7.21-40.42,7.49a170.58,170.58,0,0,0,39-11.24,188,188,0,0,0,35.4-19.21,189.89,189.89,0,0,0,54.36-58.22,197.6,197.6,0,0,1,25.76-32.8,177.65,177.65,0,0,1,32.59-25.93A174.35,174.35,0,0,1,396.53,261a182.92,182.92,0,0,1,19.3-7.57C429,249.22,442.55,246.25,456.26,246Z"/><path class="cls-8" d="M432.1,206.3A173.59,173.59,0,0,0,393,217.46a189.13,189.13,0,0,0-66,45,198.25,198.25,0,0,0-24.37,31.75,196.63,196.63,0,0,1-25.42,33,178.71,178.71,0,0,1-15.41,14.09c-2.66,2.24-5.48,4.28-8.26,6.37s-5.72,4-8.69,5.76a170.15,170.15,0,0,1-37.51,17.65c-13.12,4.2-26.71,7.21-40.42,7.49a170.66,170.66,0,0,0,39-11.24,187.58,187.58,0,0,0,35.39-19.21,189.92,189.92,0,0,0,54.37-58.22,198.06,198.06,0,0,1,25.75-32.8,177.71,177.71,0,0,1,32.6-25.93,175.2,175.2,0,0,1,18.29-9.88,183.61,183.61,0,0,1,19.29-7.57C404.8,209.56,418.39,206.59,432.1,206.3Z"/></g><path class="cls-5" d="M124.37,304.77s0,0,0-.07a8.15,8.15,0,0,0-.14-1.5c-1-7.11-8.06-15.32-14.82-15.32-7.3,0-9.49,10.07-9.49,15.55a6.62,6.62,0,0,0,.06.91,3.37,3.37,0,0,0-.06.36c0,4.94,1.21,4,8,4,6.15,0,14.75,2.2,16.24-2.46a3.34,3.34,0,0,0,.25-1.37S124.37,304.81,124.37,304.77Zm-21.48-3.41c1.42-2.06,3.29-4.28,5.47-4.28,1.84,0,4.44,2,7,4.2a23.92,23.92,0,0,1-3.23.24C108.43,301.52,105.13,301,102.89,301.36Z"/><path class="cls-4" d="M268.52,155.09h0s-95.18-4.47-95.18,131c0,90.63,67.43,127.5,87,128.74a65.33,65.33,0,0,0,8.18.52h0c51,0,92.41-58.27,92.41-130.15S319.56,155.09,268.52,155.09Z"/><path class="cls-5" d="M176.79,171.4s-6.73,2.16-6.9-1.64c-.79-17.13,14-67.83,30.06-83.89C219.57,66.25,302.12,141,302.12,164,302.12,164,211.37,143.24,176.79,171.4Z"/><path class="cls-4" d="M176.79,171.4S191.26,113,207.32,97c19.62-19.62,94.8,44,94.8,67C302.12,164,212.05,143,176.79,171.4Z"/><path class="cls-5" d="M286.59,263.54s49.25,12.31,89.46,4.92-51.29,83.31-84.53,50.07S286.59,263.54,286.59,263.54Z"/><path class="cls-4" d="M320.61,285.23c12.08-2.27-37.86,23.35-40.39,18.82-4.27-7.67-5.32-14.45-4.71-20.16C276.86,271,295.73,289.91,320.61,285.23Z"/><ellipse class="cls-2" cx="93.9" cy="283.68" rx="6.14" ry="9.97"/><ellipse class="cls-2" cx="137.68" cy="285.34" rx="10.05" ry="13.22"/><ellipse class="cls-9" cx="96.59" cy="283.68" rx="4.23" ry="6.24"/><ellipse class="cls-9" cx="142.97" cy="285.46" rx="6.23" ry="8.93"/><path d="M478.24,371.94V172.62h53.53L591.28,324.1,650.5,172.62h53V371.94h-37.3l.28-147.21L608.36,371.94h-35.3L514.68,224.73,515,371.94Z"/><path d="M723.68,330.65q0-19.92,12.81-31t36.45-12.82l43.28-3.13V278q0-10.82-7-17.09t-20.07-6.26q-19.65,0-39,13.1L734.5,241.25A104.51,104.51,0,0,1,762,226.72a95.74,95.74,0,0,1,31.75-5.12,73.67,73.67,0,0,1,23.91,3.7,53.46,53.46,0,0,1,18.51,10.54,47.65,47.65,0,0,1,12,16.37,51.29,51.29,0,0,1,4.27,21.21v57.8q0,8.55,8.26,8.55h7.69v32.17H851q-10.83,0-18.51-4.55a29.36,29.36,0,0,1-11.67-12.82,52.28,52.28,0,0,1-19.51,15.52,61.88,61.88,0,0,1-26.62,5.55,58.58,58.58,0,0,1-20.36-3.41,51,51,0,0,1-16.09-9.4,42.78,42.78,0,0,1-10.68-14.24A42,42,0,0,1,723.68,330.65Zm35.59-.28a14.18,14.18,0,0,0,6.55,12.24q6.55,4.56,17.09,4.56a38.88,38.88,0,0,0,13-2.14,37,37,0,0,0,10.68-5.69,26.15,26.15,0,0,0,7.12-8.4,22.17,22.17,0,0,0,2.56-10.54V311l-38.15,3.41Q759.27,316.13,759.27,330.37Z"/><path d="M922.71,172.62V288.23L974,224.73h42.71l-59.51,70.9L1021,371.94H975.39l-52.68-65.77v65.77h-37.3V172.62Z"/><path d="M1049.42,209.07a20.56,20.56,0,0,1-15-6,19.88,19.88,0,0,1-6.12-14.81,19.41,19.41,0,0,1,6.12-14.66,20.85,20.85,0,0,1,15-5.84,20,20,0,0,1,20.5,20.5,20.38,20.38,0,0,1-5.84,14.81A19.62,19.62,0,0,1,1049.42,209.07Zm18.51,162.87h-37.3V224.73h37.3Z"/><path d="M1153.06,375.36a83.24,83.24,0,0,1-26.19-3.85A65.79,65.79,0,0,1,1106.65,361a59.11,59.11,0,0,1-14.1-15.8,58.4,58.4,0,0,1-7.54-19.65h35.31q2.84,11.1,11.81,16.09a42.43,42.43,0,0,0,20.93,5q10.26,0,15.66-4.27a13.21,13.21,0,0,0,5.41-10.82,11,11,0,0,0-3.7-8.12q-3.71-3.56-11.1-5.55l-30.47-7.12q-41.29-10-41.29-43.28a42.47,42.47,0,0,1,15.66-33.74,53.05,53.05,0,0,1,17.37-9.4,70,70,0,0,1,21.93-3.27,79,79,0,0,1,25.34,3.84,59.65,59.65,0,0,1,19.5,10.68,54.91,54.91,0,0,1,13.1,16.09,62.67,62.67,0,0,1,6.69,19.79h-35a26.59,26.59,0,0,0-11.82-16.52,33,33,0,0,0-8.82-3.84,35.31,35.31,0,0,0-9.26-1.28q-9.12,0-13.67,4a12.45,12.45,0,0,0-4.55,9.69q0,11.39,17.65,15.66l28.19,6.83q40.42,9.69,40.44,42.71A42.78,42.78,0,0,1,1194.92,362,54.51,54.51,0,0,1,1177,371.8,74.62,74.62,0,0,1,1153.06,375.36Z"/><path d="M1228.52,224.73h37.3V311q0,13.67,8.4,22.63t22.07,9q13.67,0,22.21-8.68T1327,311V224.73h37.3V371.94H1327v-13.1A52.72,52.72,0,0,1,1309,371.09a58.42,58.42,0,0,1-22.36,4.27,60.78,60.78,0,0,1-23.49-4.42,55.66,55.66,0,0,1-18.36-12.1,54.55,54.55,0,0,1-12-18.08,58.18,58.18,0,0,1-4.27-22.35Z"/></svg>