<svg id="Layer_1" data-name="Layer 1" xmlns="http://www.w3.org/2000/svg" xmlns:xlink="http://www.w3.org/1999/xlink" viewBox="0 0 1503.03 500"><defs><style>.cls-1{fill:none;}.cls-2{fill:#ffffff;}.cls-3{fill:#e77f20;}.cls-4{opacity:0.05;}.cls-5{fill:#d66213;}.cls-6{fill:#173E17;}.cls-7{clip-path:url(#clip-path);}.cls-8{fill:#fff;opacity:0.3;}.cls-9{fill:#2f332f;}</style><clipPath id="clip-path"><path class="cls-1" d="M319.09,342.25c-8.92,14.15-20.37,21.95-32.26,21.95s-23.34-7.8-32.26-21.95a94.7,94.7,0,0,1-11-26.08,131.67,131.67,0,0,1,0-65.75,94.63,94.63,0,0,1,11-26.07c8.92-14.16,20.38-21.95,32.26-21.95s23.34,7.79,32.26,21.95a94.33,94.33,0,0,1,11,26.07,131.67,131.67,0,0,1,0,65.75A94.4,94.4,0,0,1,319.09,342.25Z"/></clipPath></defs><title>Lockup</title><ellipse class="cls-2" cx="279.57" cy="283.5" rx="72" ry="105.29"/><path class="cls-3" d="M319.09,342.25c-8.92,14.15-20.37,21.95-32.26,21.95s-23.34-7.8-32.26-21.95a94.7,94.7,0,0,1-11-26.08,131.67,131.67,0,0,1,0-65.75,94.63,94.63,0,0,1,11-26.07c8.92-14.16,20.38-21.95,32.26-21.95s23.34,7.79,32.26,21.95a94.33,94.33,0,0,1,11,26.07,131.67,131.67,0,0,1,0,65.75A94.4,94.4,0,0,1,319.09,342.25Z"/><path class="cls-4" d="M354.48,318.38c0,58.15-67.5,21.83-67.5-36.32C328.57,275.89,354.48,260.23,354.48,318.38Z"/><path class="cls-5" d="M356.31,324.8s20,5.53,20,37.29,20.3,2.08,20.3-27.6,6.25-16.65,6.25-40.6-7.29-14.06-7.29-26.55,10.94-22.39,10.94-44.77-14.06-41.65-22.39-41.65-19.36,64.17-27.83,55.7Z"/><path class="cls-4" d="M356.31,324.8s15.78-4.79,21.37,26.47c3.74,20.91,18.95,12.9,18.95-16.78s6.25-16.65,6.25-40.6-7.29-14.06-7.29-26.55,10.94-22.39,10.94-44.77-20-22.73-25.11-10.93c-3.32,7.64-7.47,61.83-15.94,53.36Z"/><path class="cls-6" d="M280.56,163.7h0s-59.28,1-79,2.45c-45.51,3.36-84,51.09-84,117.15s23.87,108.3,74.67,113.32c17.48,1.73,62.8,4.66,80.79,5.8a60.49,60.49,0,0,0,7.52.48h0c46.9,0,84.92-53.55,84.92-119.6S327.46,163.7,280.56,163.7Zm46,194.2c-12.72,17.91-29.05,27.77-46,27.77s-33.28-9.86-46-27.77a113.09,113.09,0,0,1-15.75-33,148.64,148.64,0,0,1,0-83.2,112.84,112.84,0,0,1,15.75-33c12.72-17.92,29.05-27.78,46-27.78s33.28,9.86,46,27.78a112.84,112.84,0,0,1,15.75,33,148.64,148.64,0,0,1,0,83.2A113.09,113.09,0,0,1,326.56,357.9Z"/><g class="cls-7"><path class="cls-8" d="M342.05,210.76A159.37,159.37,0,0,0,306.15,221a173.67,173.67,0,0,0-60.67,41.35,181.61,181.61,0,0,0-22.39,29.17,181.17,181.17,0,0,1-23.36,30.34,165.39,165.39,0,0,1-14.17,12.95c-2.44,2.06-5,3.93-7.59,5.85s-5.25,3.65-8,5.3a156.53,156.53,0,0,1-34.47,16.22c-12.06,3.86-24.55,6.62-37.15,6.88a156.79,156.79,0,0,0,35.87-10.33,172.05,172.05,0,0,0,32.53-17.65,174.54,174.54,0,0,0,50-53.51,181.8,181.8,0,0,1,23.67-30.14,163.17,163.17,0,0,1,30-23.82,160.35,160.35,0,0,1,16.81-9.09,170.23,170.23,0,0,1,17.74-6.95C317,213.76,329.45,211,342.05,210.76Z"/><path class="cls-8" d="M342.05,195.46a159.9,159.9,0,0,0-35.9,10.26,173.67,173.67,0,0,0-60.67,41.35,181.69,181.69,0,0,0-22.39,29.18,181.09,181.09,0,0,1-23.36,30.33,162.17,162.17,0,0,1-14.17,12.95c-2.44,2.06-5,3.94-7.59,5.86s-5.25,3.64-8,5.29a156.08,156.08,0,0,1-34.47,16.22c-12.06,3.87-24.55,6.63-37.15,6.89a156.81,156.81,0,0,0,35.87-10.34,171.49,171.49,0,0,0,32.53-17.65,174.39,174.39,0,0,0,50-53.5,181.8,181.8,0,0,1,23.67-30.14,162.52,162.52,0,0,1,46.76-32.91,170.3,170.3,0,0,1,17.74-7C317,198.46,329.45,195.73,342.05,195.46Z"/><path class="cls-8" d="M342.05,180.17a159.37,159.37,0,0,0-35.9,10.26,173.67,173.67,0,0,0-60.67,41.35A181.61,181.61,0,0,0,223.09,261a181.17,181.17,0,0,1-23.36,30.34,165.39,165.39,0,0,1-14.17,12.95c-2.44,2.06-5,3.93-7.59,5.85s-5.25,3.65-8,5.3a156.53,156.53,0,0,1-34.47,16.22c-12.06,3.86-24.55,6.62-37.15,6.88a156.79,156.79,0,0,0,35.87-10.33,172.05,172.05,0,0,0,32.53-17.65,174.54,174.54,0,0,0,50-53.51,181.8,181.8,0,0,1,23.67-30.14A162.52,162.52,0,0,1,287.16,194a172.55,172.55,0,0,1,17.74-7C317,183.17,329.45,180.44,342.05,180.17Z"/><path class="cls-8" d="M364.26,210.76A159.23,159.23,0,0,0,328.36,221a175.48,175.48,0,0,0-32.63,17.49,173.36,173.36,0,0,0-28,23.86,181.61,181.61,0,0,0-22.39,29.17,181.23,181.23,0,0,1-23.37,30.34,163.78,163.78,0,0,1-14.16,12.95c-2.44,2.06-5,3.93-7.59,5.85s-5.25,3.65-8,5.3a156.46,156.46,0,0,1-34.46,16.22c-12.06,3.86-24.55,6.62-37.15,6.88a156.79,156.79,0,0,0,35.87-10.33A172.36,172.36,0,0,0,189,341.1a174.66,174.66,0,0,0,50-53.51,181.8,181.8,0,0,1,23.67-30.14,163.17,163.17,0,0,1,29.95-23.82,160.35,160.35,0,0,1,16.81-9.09,170.06,170.06,0,0,1,17.73-6.95C339.17,213.76,351.66,211,364.26,210.76Z"/><path class="cls-8" d="M386.46,210.76A159.14,159.14,0,0,0,350.57,221a173.58,173.58,0,0,0-60.68,41.35,182.19,182.19,0,0,0-22.39,29.17,180.64,180.64,0,0,1-23.36,30.34A165.26,165.26,0,0,1,230,334.83c-2.45,2.06-5,3.93-7.59,5.85s-5.26,3.65-8,5.3a156.53,156.53,0,0,1-34.47,16.22c-12.06,3.86-24.54,6.62-37.14,6.88a156.94,156.94,0,0,0,35.87-10.33,172.67,172.67,0,0,0,32.53-17.65,174.78,174.78,0,0,0,50-53.51,181.74,181.74,0,0,1,23.66-30.14,163.24,163.24,0,0,1,30-23.82,159.35,159.35,0,0,1,16.81-9.09,170.06,170.06,0,0,1,17.73-6.95C361.38,213.76,373.87,211,386.46,210.76Z"/><path class="cls-8" d="M408.67,210.76A159.37,159.37,0,0,0,372.77,221a173.67,173.67,0,0,0-60.67,41.35,181.61,181.61,0,0,0-22.39,29.17,181.17,181.17,0,0,1-23.36,30.34,165.39,165.39,0,0,1-14.17,12.95c-2.44,2.06-5,3.93-7.59,5.85s-5.25,3.65-8,5.3a156.53,156.53,0,0,1-34.47,16.22c-12.06,3.86-24.55,6.62-37.15,6.88a156.79,156.79,0,0,0,35.87-10.33,172.05,172.05,0,0,0,32.53-17.65,174.54,174.54,0,0,0,50-53.51A181.8,181.8,0,0,1,307,257.45a163.17,163.17,0,0,1,30-23.82,160.35,160.35,0,0,1,16.81-9.09,170.23,170.23,0,0,1,17.74-6.95C383.59,213.76,396.07,211,408.67,210.76Z"/><path class="cls-8" d="M453.08,210.76A159.14,159.14,0,0,0,417.19,221a173.58,173.58,0,0,0-60.68,41.35,182.19,182.19,0,0,0-22.39,29.17,180.64,180.64,0,0,1-23.36,30.34,165.26,165.26,0,0,1-14.16,12.95c-2.45,2.06-5,3.93-7.59,5.85s-5.26,3.65-8,5.3a156.53,156.53,0,0,1-34.47,16.22c-12.06,3.86-24.54,6.62-37.14,6.88a156.94,156.94,0,0,0,35.87-10.33,172.67,172.67,0,0,0,32.53-17.65,174.78,174.78,0,0,0,50-53.51,181.74,181.74,0,0,1,23.66-30.14,163.24,163.24,0,0,1,30-23.82,159.35,159.35,0,0,1,16.81-9.09,170.06,170.06,0,0,1,17.73-6.95C428,213.76,440.49,211,453.08,210.76Z"/><path class="cls-8" d="M453.08,229a159.14,159.14,0,0,0-35.89,10.26,173.58,173.58,0,0,0-60.68,41.35,181.83,181.83,0,0,0-22.39,29.18,180.57,180.57,0,0,1-23.36,30.33,163.64,163.64,0,0,1-14.16,12.95c-2.45,2.06-5,3.94-7.59,5.86s-5.26,3.64-8,5.29a156.53,156.53,0,0,1-34.47,16.22c-12.06,3.86-24.54,6.63-37.14,6.89A157,157,0,0,0,245.28,377a172.1,172.1,0,0,0,32.53-17.65,174.55,174.55,0,0,0,50-53.51,182.15,182.15,0,0,1,23.66-30.14,163.66,163.66,0,0,1,30-23.82,159.27,159.27,0,0,1,16.81-9.08,167.94,167.94,0,0,1,17.73-7C428,232,440.49,229.25,453.08,229Z"/><path class="cls-8" d="M453.08,247.2a159.16,159.16,0,0,0-35.89,10.27,173.38,173.38,0,0,0-60.68,41.34A182.27,182.27,0,0,0,334.12,328a180.57,180.57,0,0,1-23.36,30.33,162.05,162.05,0,0,1-14.16,12.95c-2.45,2.06-5,3.94-7.59,5.86s-5.26,3.64-8,5.29a156.08,156.08,0,0,1-34.47,16.22c-12.06,3.87-24.54,6.63-37.14,6.89a157,157,0,0,0,35.87-10.34,172.1,172.1,0,0,0,32.53-17.65,174.63,174.63,0,0,0,50-53.5,181.74,181.74,0,0,1,23.66-30.14,163.29,163.29,0,0,1,30-23.83A161.12,161.12,0,0,1,398.2,261a170.13,170.13,0,0,1,17.73-7C428,250.2,440.49,247.47,453.08,247.2Z"/><path class="cls-8" d="M430.88,210.76A159.23,159.23,0,0,0,395,221a175.48,175.48,0,0,0-32.63,17.49,173.36,173.36,0,0,0-28,23.86,181.61,181.61,0,0,0-22.39,29.17,181.23,181.23,0,0,1-23.37,30.34,163.78,163.78,0,0,1-14.16,12.95c-2.44,2.06-5,3.93-7.59,5.85s-5.25,3.65-8,5.3a156.46,156.46,0,0,1-34.46,16.22c-12.06,3.86-24.55,6.62-37.15,6.88a156.79,156.79,0,0,0,35.87-10.33A172.36,172.36,0,0,0,255.6,341.1a174.66,174.66,0,0,0,50-53.51,181.8,181.8,0,0,1,23.67-30.14,163.17,163.17,0,0,1,29.95-23.82A160.35,160.35,0,0,1,376,224.54a170.06,170.06,0,0,1,17.73-6.95C405.79,213.76,418.28,211,430.88,210.76Z"/></g><path class="cls-5" d="M148.09,301.25v-.07a7.76,7.76,0,0,0-.12-1.37c-.93-6.54-7.41-14.08-13.62-14.08-6.71,0-8.72,9.25-8.72,14.29a5.71,5.71,0,0,0,.05.83,3.26,3.26,0,0,0-.05.33c0,4.54,1.11,3.69,7.31,3.69,5.65,0,13.56,2,14.92-2.26a2.88,2.88,0,0,0,.23-1.26Zm-19.75-3.13c1.31-1.9,3-3.93,5-3.93,1.68,0,4.08,1.84,6.45,3.86a23.59,23.59,0,0,1-3,.21C133.43,298.26,130.4,297.8,128.34,298.12Z"/><path class="cls-4" d="M280.56,163.7h0s-87.47-4.11-87.47,120.42c0,83.28,62,117.16,80,118.3a60.49,60.49,0,0,0,7.52.48h0c46.9,0,84.92-53.55,84.92-119.6S327.46,163.7,280.56,163.7Z"/><path class="cls-5" d="M196.26,178.68s-6.19,2-6.35-1.5c-.72-15.74,12.87-62.33,27.63-77.09,18-18,93.89,50.64,93.89,71.78C311.43,171.87,228,152.81,196.26,178.68Z"/><path class="cls-4" d="M196.26,178.68s13.29-53.63,28.05-68.39c18-18,87.12,40.44,87.12,61.58C311.43,171.87,228.66,152.6,196.26,178.68Z"/><path class="cls-5" d="M297.16,263.36s45.26,11.31,82.22,4.52-47.14,76.56-77.69,46S297.16,263.36,297.16,263.36Z"/><path class="cls-4" d="M328.43,283.3c11.1-2.09-34.8,21.45-37.12,17.29-3.93-7-4.89-13.28-4.33-18.53C288.22,270.22,305.56,287.59,328.43,283.3Z"/><ellipse class="cls-2" cx="120.08" cy="281.87" rx="5.64" ry="9.16"/><ellipse class="cls-2" cx="160.32" cy="283.39" rx="9.24" ry="12.15"/><ellipse class="cls-9" cx="122.56" cy="281.87" rx="3.89" ry="5.73"/><ellipse class="cls-9" cx="165.18" cy="283.5" rx="5.73" ry="8.21"/><path d="M478.24,371.94V172.62h53.53L591.28,324.1,650.5,172.62h53V371.94h-37.3l.28-147.21L608.36,371.94h-35.3L514.68,224.73,515,371.94Z"/><path d="M723.68,330.65q0-19.92,12.81-31t36.45-12.82l43.28-3.13V278q0-10.82-7-17.09t-20.07-6.26q-19.65,0-39,13.1L734.5,241.25A104.51,104.51,0,0,1,762,226.72a95.74,95.74,0,0,1,31.75-5.12,73.67,73.67,0,0,1,23.91,3.7,53.46,53.46,0,0,1,18.51,10.54,47.65,47.65,0,0,1,12,16.37,51.29,51.29,0,0,1,4.27,21.21v57.8q0,8.55,8.26,8.55h7.69v32.17H851q-10.83,0-18.51-4.55a29.36,29.36,0,0,1-11.67-12.82,52.28,52.28,0,0,1-19.51,15.52,61.88,61.88,0,0,1-26.62,5.55,58.58,58.58,0,0,1-20.36-3.41,51,51,0,0,1-16.09-9.4,42.78,42.78,0,0,1-10.68-14.24A42,42,0,0,1,723.68,330.65Zm35.59-.28a14.18,14.18,0,0,0,6.55,12.24q6.55,4.56,17.09,4.56a38.88,38.88,0,0,0,13-2.14,37,37,0,0,0,10.68-5.69,26.15,26.15,0,0,0,7.12-8.4,22.17,22.17,0,0,0,2.56-10.54V311l-38.15,3.41Q759.27,316.13,759.27,330.37Z"/><path d="M922.71,172.62V288.23L974,224.73h42.71l-59.51,70.9L1021,371.94H975.39l-52.68-65.77v65.77h-37.3V172.62Z"/><path d="M1049.42,209.07a20.56,20.56,0,0,1-15-6,19.88,19.88,0,0,1-6.12-14.81,19.41,19.41,0,0,1,6.12-14.66,20.85,20.85,0,0,1,15-5.84,20,20,0,0,1,20.5,20.5,20.38,20.38,0,0,1-5.84,14.81A19.62,19.62,0,0,1,1049.42,209.07Zm18.51,162.87h-37.3V224.73h37.3Z"/><path d="M1153.06,375.36a83.24,83.24,0,0,1-26.19-3.85A65.79,65.79,0,0,1,1106.65,361a59.11,59.11,0,0,1-14.1-15.8,58.4,58.4,0,0,1-7.54-19.65h35.31q2.84,11.1,11.81,16.09a42.43,42.43,0,0,0,20.93,5q10.26,0,15.66-4.27a13.21,13.21,0,0,0,5.41-10.82,11,11,0,0,0-3.7-8.12q-3.71-3.56-11.1-5.55l-30.47-7.12q-41.29-10-41.29-43.28a42.47,42.47,0,0,1,15.66-33.74,53.05,53.05,0,0,1,17.37-9.4,70,70,0,0,1,21.93-3.27,79,79,0,0,1,25.34,3.84,59.65,59.65,0,0,1,19.5,10.68,54.91,54.91,0,0,1,13.1,16.09,62.67,62.67,0,0,1,6.69,19.79h-35a26.59,26.59,0,0,0-11.82-16.52,33,33,0,0,0-8.82-3.84,35.31,35.31,0,0,0-9.26-1.28q-9.12,0-13.67,4a12.45,12.45,0,0,0-4.55,9.69q0,11.39,17.65,15.66l28.19,6.83q40.42,9.69,40.44,42.71A42.78,42.78,0,0,1,1194.92,362,54.51,54.51,0,0,1,1177,371.8,74.62,74.62,0,0,1,1153.06,375.36Z"/><path d="M1228.52,224.73h37.3V311q0,13.67,8.4,22.63t22.07,9q13.67,0,22.21-8.68T1327,311V224.73h37.3V371.94H1327v-13.1A52.72,52.72,0,0,1,1309,371.09a58.42,58.42,0,0,1-22.36,4.27,60.78,60.78,0,0,1-23.49-4.42,55.66,55.66,0,0,1-18.36-12.1,54.55,54.55,0,0,1-12-18.08,58.18,58.18,0,0,1-4.27-22.35Z"/></svg>
