<svg id="Layer_1" data-name="Layer 1" xmlns="http://www.w3.org/2000/svg" xmlns:xlink="http://www.w3.org/1999/xlink" viewBox="0 0 500 500"><defs><style>.cls-1{fill:none;}.cls-2{fill:#e5e1da;}.cls-3{fill:#dd7d26;}.cls-4{opacity:0.1;}.cls-5{fill:#d8702a;}.cls-6{fill:#273827;}.cls-7{clip-path:url(#clip-path);}.cls-8{fill:#fff;opacity:0.3;}.cls-9{fill:#2f332f;}</style><clipPath id="clip-path"><path class="cls-1" d="M322.7,364.43c-11.06,17.56-25.27,27.23-40,27.23s-29-9.67-40-27.23A117.14,117.14,0,0,1,229,332.08a163.38,163.38,0,0,1,0-81.55,117,117,0,0,1,13.7-32.35c11.06-17.56,25.27-27.23,40-27.23s28.95,9.67,40,27.23a117,117,0,0,1,13.7,32.35,163.38,163.38,0,0,1,0,81.55A117.14,117.14,0,0,1,322.7,364.43Z"/></clipPath></defs><title>Logo</title><ellipse class="cls-2" cx="273.68" cy="291.56" rx="89.32" ry="130.61"/><path class="cls-3" d="M322.7,364.43c-11.06,17.56-25.27,27.23-40,27.23s-29-9.67-40-27.23A117.14,117.14,0,0,1,229,332.08a163.38,163.38,0,0,1,0-81.55,117,117,0,0,1,13.7-32.35c11.06-17.56,25.27-27.23,40-27.23s28.95,9.67,40,27.23a117,117,0,0,1,13.7,32.35,163.38,163.38,0,0,1,0,81.55A117.14,117.14,0,0,1,322.7,364.43Z"/><path class="cls-4" d="M366.61,334.83c0,72.13-83.75,27.07-83.75-45.06C334.47,282.11,366.61,262.7,366.61,334.83Z"/><path class="cls-5" d="M368.87,342.79s24.84,6.86,24.84,46.25,25.19,2.59,25.19-34.22,7.75-20.67,7.75-50.38-9-17.43-9-32.93,13.57-27.77,13.57-55.54S413.73,164.3,403.4,164.3s-24,79.61-34.53,69.1Z"/><path class="cls-4" d="M368.87,342.79s19.58-5.94,26.51,32.84c4.64,25.94,23.52,16,23.52-20.81s7.75-20.67,7.75-50.38-9-17.43-9-32.93,13.57-27.77,13.57-55.54-24.8-28.19-31.15-13.56c-4.11,9.48-9.27,76.7-19.78,66.19Z"/><path class="cls-6" d="M274.9,142.94h0s-73.53,1.24-98,3.05C120.48,150.15,72.72,209.36,72.72,291.3s29.62,134.35,92.64,140.58c21.68,2.15,77.9,5.79,100.21,7.2a76.13,76.13,0,0,0,9.33.59h0c58.18,0,105.34-66.43,105.34-148.37S333.08,142.94,274.9,142.94ZM332,383.85c-15.78,22.22-36,34.46-57.07,34.46s-41.28-12.24-57.06-34.46a140,140,0,0,1-19.54-40.94,184.36,184.36,0,0,1,0-103.21,140,140,0,0,1,19.54-40.94c15.78-22.22,36-34.46,57.06-34.46s41.29,12.24,57.07,34.46A139.73,139.73,0,0,1,351.5,239.7a184.12,184.12,0,0,1,0,103.21A139.73,139.73,0,0,1,332,383.85Z"/><g class="cls-7"><path class="cls-8" d="M351.18,201.32a197.62,197.62,0,0,0-44.53,12.73,215.56,215.56,0,0,0-75.26,51.29,225.46,225.46,0,0,0-27.78,36.2,224.5,224.5,0,0,1-29,37.63,203.79,203.79,0,0,1-17.57,16.06c-3,2.56-6.25,4.88-9.42,7.26s-6.51,4.52-9.9,6.57A194.09,194.09,0,0,1,95,389.18C80,394,64.53,397.4,48.9,397.72A193.93,193.93,0,0,0,93.4,384.9,213.38,213.38,0,0,0,133.75,363a216.64,216.64,0,0,0,62-66.38,226,226,0,0,1,29.36-37.39,201.87,201.87,0,0,1,58-40.82,211.89,211.89,0,0,1,22-8.63C320.07,205,335.56,201.65,351.18,201.32Z"/><path class="cls-8" d="M351.18,182.35a197.1,197.1,0,0,0-44.53,12.73,215.2,215.2,0,0,0-75.26,51.29,225.38,225.38,0,0,0-27.78,36.19,223.69,223.69,0,0,1-29,37.63,202.19,202.19,0,0,1-17.57,16.06c-3,2.56-6.25,4.89-9.42,7.27s-6.51,4.52-9.9,6.57A194.54,194.54,0,0,1,95,370.21c-15,4.79-30.45,8.22-46.08,8.54a194.93,194.93,0,0,0,44.5-12.82A213.43,213.43,0,0,0,133.75,344a216.49,216.49,0,0,0,62-66.37,225.6,225.6,0,0,1,29.36-37.39,203,203,0,0,1,37.15-29.56,198.72,198.72,0,0,1,20.86-11.26,209.67,209.67,0,0,1,22-8.63C320.07,186.07,335.56,182.68,351.18,182.35Z"/><path class="cls-8" d="M351.18,163.37a198.14,198.14,0,0,0-44.53,12.73,215.4,215.4,0,0,0-75.26,51.3,224.94,224.94,0,0,0-27.78,36.19,224.1,224.1,0,0,1-29,37.63,203.79,203.79,0,0,1-17.57,16.06c-3,2.56-6.25,4.89-9.42,7.27-3.28,2.22-6.51,4.51-9.9,6.56A194.58,194.58,0,0,1,95,351.24c-15,4.79-30.45,8.21-46.08,8.54A194.93,194.93,0,0,0,93.4,347a214,214,0,0,0,40.35-21.9,216.72,216.72,0,0,0,62-66.37,226.09,226.09,0,0,1,29.36-37.4,202.93,202.93,0,0,1,37.15-29.55,200.66,200.66,0,0,1,20.86-11.27,214.15,214.15,0,0,1,22-8.63C320.07,167.09,335.56,163.71,351.18,163.37Z"/><path class="cls-8" d="M378.73,201.32a197.47,197.47,0,0,0-44.53,12.73,215.56,215.56,0,0,0-75.26,51.29,224.88,224.88,0,0,0-27.78,36.2,224.5,224.5,0,0,1-29,37.63,203.79,203.79,0,0,1-17.57,16.06c-3,2.56-6.25,4.88-9.42,7.26s-6.51,4.52-9.91,6.57a193.8,193.8,0,0,1-42.75,20.12c-15,4.79-30.45,8.22-46.08,8.54A194.07,194.07,0,0,0,121,384.9,213.38,213.38,0,0,0,161.3,363a216.49,216.49,0,0,0,62-66.38,226.54,226.54,0,0,1,29.36-37.39,202.25,202.25,0,0,1,58-40.82,212.05,212.05,0,0,1,22-8.63C347.61,205,363.11,201.65,378.73,201.32Z"/><path class="cls-8" d="M406.28,201.32a197.32,197.32,0,0,0-44.53,12.73,215.72,215.72,0,0,0-75.27,51.29,225.4,225.4,0,0,0-27.77,36.2,225.09,225.09,0,0,1-29,37.63,202.2,202.2,0,0,1-17.56,16.06c-3,2.56-6.25,4.88-9.42,7.26s-6.52,4.52-9.91,6.57a193.8,193.8,0,0,1-42.75,20.12c-15,4.79-30.46,8.22-46.08,8.54a194,194,0,0,0,44.49-12.82A213.47,213.47,0,0,0,188.85,363a216.61,216.61,0,0,0,62-66.38,226,226,0,0,1,29.36-37.39,202.58,202.58,0,0,1,37.16-29.55,200.52,200.52,0,0,1,20.85-11.27,211.17,211.17,0,0,1,22-8.63C375.16,205,390.65,201.65,406.28,201.32Z"/><path class="cls-8" d="M433.83,201.32a197.56,197.56,0,0,0-44.54,12.73A215.56,215.56,0,0,0,314,265.34a226,226,0,0,0-27.78,36.2,224.5,224.5,0,0,1-29,37.63,202.32,202.32,0,0,1-17.57,16.06c-3,2.56-6.25,4.88-9.41,7.26s-6.52,4.52-9.91,6.57a193.66,193.66,0,0,1-42.76,20.12c-15,4.79-30.45,8.22-46.08,8.54A193.93,193.93,0,0,0,176,384.9,213.08,213.08,0,0,0,216.39,363a216.52,216.52,0,0,0,62-66.38,226,226,0,0,1,29.36-37.39,202.58,202.58,0,0,1,37.16-29.55,200.52,200.52,0,0,1,20.85-11.27,211.17,211.17,0,0,1,22-8.63C402.71,205,418.2,201.65,433.83,201.32Z"/><path class="cls-8" d="M488.92,201.32a197.47,197.47,0,0,0-44.53,12.73,215.56,215.56,0,0,0-75.26,51.29,224.88,224.88,0,0,0-27.78,36.2,224.5,224.5,0,0,1-29,37.63,203.79,203.79,0,0,1-17.57,16.06c-3,2.56-6.25,4.88-9.42,7.26s-6.51,4.52-9.91,6.57a193.8,193.8,0,0,1-42.75,20.12c-15,4.79-30.45,8.22-46.08,8.54a194.07,194.07,0,0,0,44.5-12.82A213.38,213.38,0,0,0,271.49,363a216.49,216.49,0,0,0,62-66.38,226.54,226.54,0,0,1,29.36-37.39,202.25,202.25,0,0,1,58-40.82,212.05,212.05,0,0,1,22-8.63C457.8,205,473.3,201.65,488.92,201.32Z"/><path class="cls-8" d="M488.92,223.93a197.45,197.45,0,0,0-44.53,12.72A215.4,215.4,0,0,0,369.13,288a224.81,224.81,0,0,0-27.78,36.19,223.69,223.69,0,0,1-29,37.63,203.79,203.79,0,0,1-17.57,16.06c-3,2.56-6.25,4.89-9.42,7.27-3.28,2.22-6.51,4.52-9.91,6.57a194.25,194.25,0,0,1-42.75,20.12c-15,4.79-30.45,8.22-46.08,8.54a195.08,195.08,0,0,0,44.5-12.82,213.43,213.43,0,0,0,40.35-21.9,216.34,216.34,0,0,0,62-66.37,226.13,226.13,0,0,1,29.36-37.39A202.63,202.63,0,0,1,400,252.29,199.57,199.57,0,0,1,420.83,241a212.12,212.12,0,0,1,22-8.64C457.8,227.65,473.3,224.26,488.92,223.93Z"/><path class="cls-8" d="M488.92,246.53a197.47,197.47,0,0,0-44.53,12.73,215.56,215.56,0,0,0-75.26,51.29,224.88,224.88,0,0,0-27.78,36.2,224.5,224.5,0,0,1-29,37.63,203.79,203.79,0,0,1-17.57,16.06c-3,2.56-6.25,4.88-9.42,7.26s-6.51,4.52-9.91,6.57a193.8,193.8,0,0,1-42.75,20.12c-15,4.79-30.45,8.22-46.08,8.54a194.07,194.07,0,0,0,44.5-12.82,213.38,213.38,0,0,0,40.35-21.89,216.49,216.49,0,0,0,62-66.38,226.54,226.54,0,0,1,29.36-37.39,202.25,202.25,0,0,1,58-40.82,212.05,212.05,0,0,1,22-8.63C457.8,250.25,473.3,246.87,488.92,246.53Z"/><path class="cls-8" d="M461.37,201.32a197.62,197.62,0,0,0-44.53,12.73,215.56,215.56,0,0,0-75.26,51.29,225.46,225.46,0,0,0-27.78,36.2,224.5,224.5,0,0,1-29,37.63,203.79,203.79,0,0,1-17.57,16.06c-3,2.56-6.25,4.88-9.42,7.26s-6.51,4.52-9.9,6.57a194.09,194.09,0,0,1-42.76,20.12c-15,4.79-30.45,8.22-46.08,8.54a193.93,193.93,0,0,0,44.5-12.82A213.38,213.38,0,0,0,243.94,363a216.64,216.64,0,0,0,62-66.38,226,226,0,0,1,29.36-37.39,201.87,201.87,0,0,1,58-40.82,211.89,211.89,0,0,1,22-8.63C430.26,205,445.75,201.65,461.37,201.32Z"/></g><path class="cls-5" d="M110.57,313.58s0-.06,0-.09a9.27,9.27,0,0,0-.16-1.7c-1.14-8.11-9.19-17.46-16.89-17.46-8.32,0-10.82,11.47-10.82,17.72a6.52,6.52,0,0,0,.07,1c0,.15-.07.25-.07.41,0,5.64,1.38,4.58,9.08,4.58,7,0,16.81,2.51,18.51-2.81a3.78,3.78,0,0,0,.28-1.56S110.57,313.62,110.57,313.58Zm-24.49-3.89c1.62-2.35,3.75-4.87,6.24-4.87,2.09,0,5.06,2.28,8,4.78a29.1,29.1,0,0,1-3.69.27C92.39,309.87,88.63,309.29,86.08,309.69Z"/><path class="cls-4" d="M274.9,142.94h0s-108.51-5.1-108.51,149.38c0,103.31,76.87,145.35,99.18,146.76a76.13,76.13,0,0,0,9.33.59h0c58.18,0,105.34-66.43,105.34-148.37S333.08,142.94,274.9,142.94Z"/><path class="cls-5" d="M170.33,161.53s-7.67,2.46-7.87-1.86c-.9-19.54,16-77.32,34.27-95.64C219.1,41.67,313.2,126.85,313.2,153.08,313.2,153.08,209.75,129.43,170.33,161.53Z"/><path class="cls-4" d="M170.33,161.53S186.82,95,205.13,76.69C227.5,54.32,313.2,126.85,313.2,153.08,313.2,153.08,210.52,129.17,170.33,161.53Z"/><path class="cls-5" d="M295.5,266.57s56.14,14,102,5.61-58.48,95-96.37,57.08S295.5,266.57,295.5,266.57Z"/><path class="cls-4" d="M334.29,291.3c13.77-2.58-43.17,26.62-46.05,21.45-4.87-8.74-6.06-16.46-5.38-23C284.41,275.09,305.92,296.63,334.29,291.3Z"/><ellipse class="cls-2" cx="75.83" cy="289.53" rx="7" ry="11.37"/><ellipse class="cls-2" cx="125.75" cy="291.42" rx="11.46" ry="15.07"/><ellipse class="cls-9" cx="78.91" cy="289.53" rx="4.83" ry="7.11"/><ellipse class="cls-9" cx="131.78" cy="291.56" rx="7.11" ry="10.18"/></svg>