<svg id="Layer_1" data-name="Layer 1" xmlns="http://www.w3.org/2000/svg" xmlns:xlink="http://www.w3.org/1999/xlink" viewBox="0 0 500 500"><defs><style>.cls-1{fill:none;}.cls-2{fill:#ffffff;}.cls-3{fill:#e77f20;}.cls-4{opacity:0.05;}.cls-5{fill:#d66213;}.cls-6{fill:#173E17;}.cls-7{clip-path:url(#clip-path);}.cls-8{fill:#fff;opacity:0.3;}.cls-9{fill:#2f332f;}</style><clipPath id="clip-path"><path class="cls-1" d="M309.55,349.78c-9.65,15.31-22,23.74-34.89,23.74s-25.25-8.43-34.89-23.74a102,102,0,0,1-12-28.21,142.41,142.41,0,0,1,0-71.11,102,102,0,0,1,12-28.21c9.64-15.31,22-23.74,34.89-23.74s25.24,8.43,34.89,23.74a102,102,0,0,1,11.94,28.21,142.41,142.41,0,0,1,0,71.11A102,102,0,0,1,309.55,349.78Z"/></clipPath></defs><title>Logo</title><ellipse class="cls-2" cx="266.8" cy="286.24" rx="77.88" ry="113.88"/><path class="cls-3" d="M309.55,349.78c-9.65,15.31-22,23.74-34.89,23.74s-25.25-8.43-34.89-23.74a102,102,0,0,1-12-28.21,142.41,142.41,0,0,1,0-71.11,102,102,0,0,1,12-28.21c9.64-15.31,22-23.74,34.89-23.74s25.24,8.43,34.89,23.74a102,102,0,0,1,11.94,28.21,142.41,142.41,0,0,1,0,71.11A102,102,0,0,1,309.55,349.78Z"/><path class="cls-4" d="M347.83,324c0,62.89-73,23.6-73-39.29C319.81,278,347.83,261.07,347.83,324Z"/><path class="cls-5" d="M349.8,330.91s21.66,6,21.66,40.33,22,2.25,22-29.85,6.76-18,6.76-43.92-7.88-15.2-7.88-28.72,11.82-24.21,11.82-48.42-15.2-45.05-24.21-45.05-21,69.41-30.11,60.25Z"/><path class="cls-4" d="M349.8,330.91s17.08-5.18,23.12,28.63c4,22.62,20.5,13.95,20.5-18.15s6.76-18,6.76-43.92-7.88-15.2-7.88-28.72,11.82-24.21,11.82-48.42S382.5,195.75,377,208.51c-3.58,8.26-8.08,66.87-17.24,57.71Z"/><path class="cls-6" d="M267.87,156.65h0s-64.11,1.09-85.42,2.66c-49.23,3.62-90.87,55.26-90.87,126.7s25.83,117.14,80.78,122.58c18.9,1.87,67.92,5,87.38,6.28a66.46,66.46,0,0,0,8.13.51h0c50.73,0,91.85-57.92,91.85-129.37S318.6,156.65,267.87,156.65ZM317.63,366.7c-13.76,19.38-31.43,30.05-49.76,30.05s-36-10.67-49.76-30.05a121.89,121.89,0,0,1-17-35.69,160.65,160.65,0,0,1,0-90,122.07,122.07,0,0,1,17-35.7c13.76-19.37,31.43-30,49.76-30s36,10.67,49.76,30a122.07,122.07,0,0,1,17,35.7,160.65,160.65,0,0,1,0,90A121.89,121.89,0,0,1,317.63,366.7Z"/><g class="cls-7"><path class="cls-8" d="M334.38,207.56a172.13,172.13,0,0,0-38.83,11.09,187.9,187.9,0,0,0-65.62,44.73,195.87,195.87,0,0,0-24.22,31.56,196.26,196.26,0,0,1-25.27,32.81,176.54,176.54,0,0,1-15.32,14c-2.64,2.23-5.45,4.26-8.21,6.34s-5.68,3.94-8.64,5.72A169.43,169.43,0,0,1,111,371.36c-13,4.17-26.55,7.16-40.18,7.45a170.1,170.1,0,0,0,38.8-11.18,186.34,186.34,0,0,0,35.19-19.1,188.56,188.56,0,0,0,54-57.87,197.58,197.58,0,0,1,25.6-32.6,177.06,177.06,0,0,1,32.4-25.77A174.1,174.1,0,0,1,275,222.47a183.73,183.73,0,0,1,19.18-7.53C307.25,210.8,320.76,207.85,334.38,207.56Z"/><path class="cls-8" d="M334.38,191a172.15,172.15,0,0,0-38.83,11.1,188.05,188.05,0,0,0-65.62,44.72,196.75,196.75,0,0,0-24.22,31.56,195.45,195.45,0,0,1-25.27,32.81,176.65,176.65,0,0,1-15.32,14c-2.64,2.23-5.45,4.26-8.21,6.33s-5.68,3.94-8.64,5.73A168.94,168.94,0,0,1,111,354.81C98,359,84.44,362,70.81,362.26a169.6,169.6,0,0,0,38.8-11.18A185.73,185.73,0,0,0,144.8,332a188.79,188.79,0,0,0,54-57.87,197.17,197.17,0,0,1,25.6-32.6A175.79,175.79,0,0,1,275,205.92a186,186,0,0,1,19.18-7.53C307.25,194.26,320.76,191.3,334.38,191Z"/><path class="cls-8" d="M334.38,174.47a172.15,172.15,0,0,0-38.83,11.1,187.7,187.7,0,0,0-65.62,44.72,196.31,196.31,0,0,0-24.22,31.56,196.26,196.26,0,0,1-25.27,32.81,175,175,0,0,1-15.32,14c-2.64,2.23-5.45,4.26-8.21,6.34s-5.68,3.94-8.64,5.73A169.4,169.4,0,0,1,111,338.27c-13,4.18-26.55,7.17-40.18,7.45a169.6,169.6,0,0,0,38.8-11.18,186.86,186.86,0,0,0,35.19-19.09,188.71,188.71,0,0,0,54-57.88,197.58,197.58,0,0,1,25.6-32.6,177.06,177.06,0,0,1,32.4-25.77A174.1,174.1,0,0,1,275,189.38a183.73,183.73,0,0,1,19.18-7.53C307.25,177.71,320.76,174.76,334.38,174.47Z"/><path class="cls-8" d="M358.4,207.56a172.13,172.13,0,0,0-38.83,11.09A187.9,187.9,0,0,0,254,263.38a195.87,195.87,0,0,0-24.22,31.56,196.26,196.26,0,0,1-25.27,32.81,178,178,0,0,1-15.32,14c-2.64,2.23-5.45,4.26-8.21,6.34s-5.68,3.94-8.64,5.72A169.43,169.43,0,0,1,135,371.36c-13,4.17-26.55,7.16-40.18,7.45a170.1,170.1,0,0,0,38.8-11.18,186.34,186.34,0,0,0,35.19-19.1,188.56,188.56,0,0,0,54-57.87,197.58,197.58,0,0,1,25.6-32.6,177.06,177.06,0,0,1,32.4-25.77A174.1,174.1,0,0,1,299,222.47a183.73,183.73,0,0,1,19.18-7.53C331.27,210.8,344.78,207.85,358.4,207.56Z"/><path class="cls-8" d="M382.42,207.56a172.13,172.13,0,0,0-38.83,11.09A187.9,187.9,0,0,0,278,263.38a195.87,195.87,0,0,0-24.22,31.56,196.26,196.26,0,0,1-25.27,32.81,178,178,0,0,1-15.32,14c-2.64,2.23-5.45,4.26-8.21,6.34s-5.68,3.94-8.64,5.72A169.43,169.43,0,0,1,159,371.36c-13.05,4.17-26.55,7.16-40.18,7.45a170.25,170.25,0,0,0,38.8-11.18,186.26,186.26,0,0,0,35.18-19.1,188.47,188.47,0,0,0,54-57.87,197.58,197.58,0,0,1,25.6-32.6,177.06,177.06,0,0,1,32.4-25.77,174.1,174.1,0,0,1,18.18-9.82,183.73,183.73,0,0,1,19.18-7.53C355.29,210.8,368.8,207.85,382.42,207.56Z"/><path class="cls-8" d="M406.44,207.56a172.13,172.13,0,0,0-38.83,11.09A187.9,187.9,0,0,0,302,263.38a195.87,195.87,0,0,0-24.22,31.56,196.26,196.26,0,0,1-25.27,32.81,178,178,0,0,1-15.32,14c-2.65,2.23-5.45,4.26-8.21,6.34s-5.68,3.94-8.64,5.72a169.43,169.43,0,0,1-37.28,17.55c-13.05,4.17-26.55,7.16-40.18,7.45a170.25,170.25,0,0,0,38.8-11.18,186.26,186.26,0,0,0,35.18-19.1,188.47,188.47,0,0,0,54-57.87,197.58,197.58,0,0,1,25.6-32.6,177.06,177.06,0,0,1,32.4-25.77,174.1,174.1,0,0,1,18.18-9.82,183.73,183.73,0,0,1,19.18-7.53C379.31,210.8,392.82,207.85,406.44,207.56Z"/><path class="cls-8" d="M454.48,207.56a172.13,172.13,0,0,0-38.83,11.09A187.9,187.9,0,0,0,350,263.38a195.87,195.87,0,0,0-24.22,31.56,196.26,196.26,0,0,1-25.27,32.81,178,178,0,0,1-15.32,14c-2.65,2.23-5.45,4.26-8.21,6.34s-5.68,3.94-8.64,5.72a169.43,169.43,0,0,1-37.28,17.55c-13.05,4.17-26.55,7.16-40.18,7.45a170.25,170.25,0,0,0,38.8-11.18,186.26,186.26,0,0,0,35.18-19.1,188.47,188.47,0,0,0,54-57.87,197.05,197.05,0,0,1,25.6-32.6,177.06,177.06,0,0,1,32.4-25.77,174.1,174.1,0,0,1,18.18-9.82,183.73,183.73,0,0,1,19.18-7.53C427.35,210.8,440.86,207.85,454.48,207.56Z"/><path class="cls-8" d="M454.48,227.27a172.13,172.13,0,0,0-38.83,11.09A187.9,187.9,0,0,0,350,283.09a195.87,195.87,0,0,0-24.22,31.56,196.26,196.26,0,0,1-25.27,32.81,178,178,0,0,1-15.32,14c-2.65,2.23-5.45,4.26-8.21,6.34s-5.68,3.94-8.64,5.72a169.43,169.43,0,0,1-37.28,17.55c-13.05,4.17-26.55,7.17-40.18,7.45a170.25,170.25,0,0,0,38.8-11.18,186.26,186.26,0,0,0,35.18-19.1,188.47,188.47,0,0,0,54-57.87,197.05,197.05,0,0,1,25.6-32.6A177.06,177.06,0,0,1,376.93,252a174.1,174.1,0,0,1,18.18-9.82,183.73,183.73,0,0,1,19.18-7.53C427.35,230.51,440.86,227.56,454.48,227.27Z"/><path class="cls-8" d="M454.48,247a172.13,172.13,0,0,0-38.83,11.09A187.9,187.9,0,0,0,350,302.8a195.87,195.87,0,0,0-24.22,31.56,196.26,196.26,0,0,1-25.27,32.81,178,178,0,0,1-15.32,14c-2.65,2.23-5.45,4.26-8.21,6.34s-5.68,3.94-8.64,5.72a169.43,169.43,0,0,1-37.28,17.55C218,415,204.54,418,190.91,418.23a170.25,170.25,0,0,0,38.8-11.18A186.26,186.26,0,0,0,264.89,388a188.47,188.47,0,0,0,54-57.87,197.05,197.05,0,0,1,25.6-32.6,177.06,177.06,0,0,1,32.4-25.77,174.1,174.1,0,0,1,18.18-9.82,183.73,183.73,0,0,1,19.18-7.53C427.35,250.22,440.86,247.27,454.48,247Z"/><path class="cls-8" d="M430.46,207.56a172.13,172.13,0,0,0-38.83,11.09A187.9,187.9,0,0,0,326,263.38a195.87,195.87,0,0,0-24.22,31.56,196.26,196.26,0,0,1-25.27,32.81,178,178,0,0,1-15.32,14c-2.65,2.23-5.45,4.26-8.21,6.34s-5.68,3.94-8.64,5.72a169.43,169.43,0,0,1-37.28,17.55c-13,4.17-26.55,7.16-40.18,7.45a170.25,170.25,0,0,0,38.8-11.18,186.26,186.26,0,0,0,35.18-19.1,188.47,188.47,0,0,0,54-57.87,197.58,197.58,0,0,1,25.6-32.6,177.06,177.06,0,0,1,32.4-25.77,174.1,174.1,0,0,1,18.18-9.82,183.73,183.73,0,0,1,19.18-7.53C403.33,210.8,416.84,207.85,430.46,207.56Z"/></g><path class="cls-5" d="M124.58,305.43s0,0,0-.07a8,8,0,0,0-.13-1.48c-1-7.07-8-15.23-14.73-15.23-7.26,0-9.44,10-9.44,15.45a6.34,6.34,0,0,0,.06.9c0,.14-.06.22-.06.36,0,4.91,1.21,4,7.91,4,6.12,0,14.66,2.19,16.14-2.45a3.08,3.08,0,0,0,.25-1.35S124.58,305.47,124.58,305.43Zm-21.35-3.38c1.41-2.06,3.27-4.25,5.44-4.25,1.83,0,4.42,2,7,4.17a25.25,25.25,0,0,1-3.21.23C108.74,302.2,105.46,301.7,103.23,302.05Z"/><path class="cls-4" d="M267.87,156.65h0s-94.61-4.44-94.61,130.25c0,90.08,67,126.73,86.48,128a66.46,66.46,0,0,0,8.13.51h0c50.73,0,91.85-57.92,91.85-129.37S318.6,156.65,267.87,156.65Z"/><path class="cls-5" d="M176.69,172.86s-6.69,2.15-6.86-1.62c-.79-17,13.91-67.42,29.88-83.39,19.5-19.5,101.55,54.77,101.55,77.64C301.26,165.49,211.06,144.87,176.69,172.86Z"/><path class="cls-4" d="M176.69,172.86s14.38-58,30.34-74c19.51-19.51,94.23,43.73,94.23,66.6C301.26,165.49,211.74,144.65,176.69,172.86Z"/><path class="cls-5" d="M285.83,264.45s48.95,12.24,88.93,4.89-51,82.81-84,49.77S285.83,264.45,285.83,264.45Z"/><path class="cls-4" d="M319.65,286c12-2.25-37.64,23.21-40.15,18.71-4.25-7.62-5.29-14.36-4.69-20C276.16,271.88,294.91,290.66,319.65,286Z"/><ellipse class="cls-2" cx="94.3" cy="284.47" rx="6.1" ry="9.91"/><ellipse class="cls-2" cx="137.82" cy="286.12" rx="9.99" ry="13.14"/><ellipse class="cls-9" cx="96.97" cy="284.47" rx="4.21" ry="6.2"/><ellipse class="cls-9" cx="143.07" cy="286.24" rx="6.2" ry="8.88"/></svg>
